<svg width="2000px" height="602px"
 viewBox="0.00 0.00 1796.32 540.89" xmlns="http://www.w3.org/2000/svg" xmlns:xlink="http://www.w3.org/1999/xlink">
<g id="graph0" class="graph" transform="scale(1.0 1.0) rotate(0) translate(4 536.89)">
<title>ContextMapGraph</title>
<polygon fill="white" stroke="transparent" points="-4,4 -4,-536.89 1792.32,-536.89 1792.32,4 -4,4"/>
<!-- ArchitectureMigrationBC -->
<g id="node1" class="node">
<title>ArchitectureMigrationBC</title>
<polygon fill="none" stroke="black" stroke-width="2" points="931.85,-227.46 923.2,-225.66 914.91,-223.78 906.99,-221.83 899.5,-219.81 892.47,-217.73 885.91,-215.59 879.86,-213.42 874.35,-211.2 869.4,-208.95 865.02,-206.68 861.24,-204.4 858.07,-202.11 855.52,-199.81 853.59,-197.52 852.31,-195.24 851.65,-192.98 851.63,-190.73 852.25,-188.52 853.49,-186.34 855.34,-184.2 857.79,-182.1 860.84,-180.05 864.45,-178.05 868.6,-176.1 873.29,-174.21 878.48,-172.38 884.14,-170.62 890.25,-168.92 896.77,-167.29 903.69,-165.73 910.95,-164.25 918.55,-162.84 926.43,-161.5 934.56,-160.25 942.92,-159.07 951.47,-157.98 960.18,-156.97 969.01,-156.05 977.93,-155.2 986.92,-154.45 995.93,-153.78 1004.95,-153.2 1013.95,-152.72 1022.89,-152.32 1031.76,-152.01 1040.53,-151.8 1049.19,-151.68 1057.7,-151.66 1066.06,-151.73 1074.24,-151.9 1082.24,-152.17 1090.03,-152.53 1097.61,-153 1104.96,-153.57 1112.09,-154.23 1118.97,-155 1125.6,-155.86 1131.98,-156.83 1138.11,-157.9 1143.97,-159.06 1149.57,-160.33 1154.89,-161.69 1159.95,-163.15 1164.74,-164.7 1169.25,-166.34 1173.48,-168.07 1177.44,-169.88 1181.12,-171.78 1184.51,-173.75 1187.61,-175.8 1190.43,-177.91 1192.95,-180.1 1195.18,-182.33 1197.1,-184.62 1198.72,-186.96 1200.02,-189.34 1201,-191.75 1201.66,-194.18 1201.98,-196.63 1201.97,-199.1 1201.6,-201.56 1200.88,-204.02 1199.8,-206.46 1198.34,-208.88 1196.51,-211.26 1194.29,-213.61 1191.69,-215.91 1188.68,-218.15 1185.28,-220.32 1181.47,-222.42 1177.26,-224.44 1172.64,-226.36 1167.61,-228.19 1162.18,-229.92 1156.34,-231.53 1150.12,-233.03 1143.5,-234.4 1136.5,-235.65 1129.14,-236.76 1121.43,-237.74 1113.38,-238.57 1105.01,-239.27 1096.34,-239.81 1087.39,-240.21 1078.2,-240.46 1068.78,-240.56 1059.16,-240.51 1049.37,-240.31 1039.46,-239.96 1029.44,-239.47 1019.35,-238.84 1009.24,-238.07 999.13,-237.17 989.07,-236.13 979.1,-234.97 969.24,-233.68 959.56,-232.28 950.07,-230.78 940.82,-229.16 931.85,-227.46"/>
<text text-anchor="middle" x="1040.25" y="-189.87" font-family="sans-serif" font-size="16.00">ArchitectureMigrationBC</text>
</g>
<!-- TimeZoneManagementBC -->
<g id="node2" class="node">
<title>TimeZoneManagementBC</title>
<polygon fill="none" stroke="black" stroke-width="2" points="84.18,-82.65 75.07,-80.86 66.34,-78.98 58.01,-77.02 50.13,-75 42.72,-72.92 35.83,-70.79 29.46,-68.61 23.66,-66.39 18.45,-64.15 13.84,-61.88 9.87,-59.59 6.53,-57.3 3.84,-55 1.82,-52.71 0.46,-50.43 -0.23,-48.17 -0.25,-45.93 0.4,-43.72 1.7,-41.54 3.65,-39.39 6.24,-37.29 9.44,-35.24 13.24,-33.24 17.61,-31.29 22.54,-29.4 28,-27.57 33.96,-25.81 40.39,-24.11 47.26,-22.48 54.53,-20.92 62.18,-19.44 70.17,-18.03 78.46,-16.7 87.03,-15.44 95.82,-14.27 104.82,-13.18 113.98,-12.17 123.28,-11.24 132.67,-10.4 142.12,-9.64 151.61,-8.98 161.1,-8.4 170.57,-7.91 179.98,-7.51 189.32,-7.21 198.55,-6.99 207.65,-6.87 216.61,-6.85 225.41,-6.92 234.02,-7.09 242.44,-7.36 250.64,-7.73 258.61,-8.19 266.35,-8.76 273.85,-9.43 281.09,-10.19 288.07,-11.06 294.79,-12.03 301.23,-13.09 307.4,-14.26 313.29,-15.52 318.9,-16.88 324.22,-18.34 329.26,-19.89 334.01,-21.53 338.46,-23.26 342.63,-25.07 346.5,-26.97 350.07,-28.94 353.33,-30.99 356.3,-33.11 358.95,-35.29 361.3,-37.53 363.32,-39.82 365.02,-42.16 366.39,-44.53 367.42,-46.94 368.12,-49.38 368.46,-51.83 368.44,-54.29 368.05,-56.75 367.3,-59.21 366.15,-61.65 364.62,-64.07 362.7,-66.46 360.36,-68.8 357.62,-71.1 354.46,-73.34 350.88,-75.51 346.87,-77.61 342.44,-79.63 337.57,-81.56 332.28,-83.39 326.57,-85.11 320.43,-86.73 313.87,-88.22 306.91,-89.6 299.55,-90.84 291.8,-91.96 283.68,-92.93 275.21,-93.77 266.4,-94.46 257.28,-95 247.86,-95.4 238.19,-95.65 228.27,-95.75 218.15,-95.7 207.85,-95.5 197.41,-95.16 186.87,-94.67 176.26,-94.04 165.61,-93.27 154.98,-92.36 144.39,-91.32 133.89,-90.16 123.52,-88.88 113.33,-87.48 103.34,-85.97 93.61,-84.36 84.18,-82.65"/>
<text text-anchor="middle" x="198.25" y="-45.06" font-family="sans-serif" font-size="16.00">TimeZoneManagementBC</text>
</g>
<!-- ArchitectureMigrationBC&#45;&gt;TimeZoneManagementBC -->
<g id="edge1" class="edge">
<title>ArchitectureMigrationBC&#45;&gt;TimeZoneManagementBC</title>
<path fill="none" stroke="black" stroke-width="2" d="M879.15,-172.15C750.44,-154.9 565.68,-128.21 405.25,-97.72 382.14,-93.33 357.71,-88.16 334.04,-82.87"/>
<text text-anchor="middle" x="621.25" y="-119.12" font-family="sans-serif" font-size="12.00">Shared Kernel</text>
</g>
<!-- MonolithBusinessImplementationBC -->
<g id="node3" class="node">
<title>MonolithBusinessImplementationBC</title>
<polygon fill="none" stroke="black" stroke-width="2" points="435.15,-32.67 440.64,-29.99 446.71,-27.37 453.33,-24.83 460.47,-22.36 468.12,-19.99 476.25,-17.72 484.82,-15.56 493.82,-13.52 503.21,-11.61 512.97,-9.83 523.07,-8.2 533.47,-6.71 544.16,-5.37 555.09,-4.19 566.23,-3.17 577.57,-2.31 589.06,-1.61 600.68,-1.08 612.4,-0.71 624.19,-0.5 636.03,-0.46 647.87,-0.57 659.7,-0.84 671.48,-1.26 683.2,-1.83 694.82,-2.54 706.31,-3.38 717.66,-4.36 728.83,-5.46 739.8,-6.67 750.55,-8 761.06,-9.43 771.29,-10.96 781.23,-12.57 790.86,-14.26 800.15,-16.02 809.09,-17.85 817.64,-19.73 825.8,-21.66 833.55,-23.64 840.85,-25.65 847.71,-27.68 854.09,-29.74 859.98,-31.82 865.37,-33.9 870.24,-35.99 874.57,-38.08 878.36,-40.17 881.59,-42.24 884.24,-44.3 886.31,-46.35 887.78,-48.38 888.66,-50.39 888.92,-52.37 888.57,-54.32 887.61,-56.25 886.02,-58.15 883.8,-60.02 880.96,-61.85 877.5,-63.65 873.43,-65.42 868.74,-67.15 863.44,-68.84 857.55,-70.49 851.07,-72.11 844.02,-73.68 836.41,-75.22 828.27,-76.71 819.6,-78.15 810.43,-79.55 800.78,-80.89 790.67,-82.19 780.14,-83.43 769.21,-84.61 757.91,-85.73 746.28,-86.78 734.34,-87.77 722.13,-88.68 709.68,-89.52 697.04,-90.27 684.24,-90.95 671.32,-91.53 658.32,-92.02 645.28,-92.41 632.25,-92.69 619.25,-92.87 606.34,-92.94 593.56,-92.9 580.94,-92.73 568.53,-92.45 556.36,-92.03 544.48,-91.49 532.92,-90.83 521.73,-90.02 510.93,-89.09 500.56,-88.02 490.66,-86.82 481.25,-85.49 472.37,-84.02 464.04,-82.43 456.28,-80.71 449.13,-78.87 442.6,-76.91 436.7,-74.83 431.47,-72.65 426.9,-70.36 423.01,-67.99 419.81,-65.52 417.31,-62.98 415.51,-60.36 414.41,-57.69 414.01,-54.97 414.3,-52.2 415.29,-49.41 416.96,-46.6 419.31,-43.78 422.31,-40.97 425.97,-38.17 430.25,-35.4 435.15,-32.67"/>
<text text-anchor="middle" x="655.25" y="-45.06" font-family="sans-serif" font-size="16.00">MonolithBusinessImplementationBC</text>
</g>
<!-- ArchitectureMigrationBC&#45;&gt;MonolithBusinessImplementationBC -->
<g id="edge2" class="edge">
<title>ArchitectureMigrationBC&#45;&gt;MonolithBusinessImplementationBC</title>
<path fill="none" stroke="black" stroke-width="2" d="M947.54,-158.28C888.8,-136.49 812.92,-108.35 753.2,-86.19"/>
<text text-anchor="middle" x="935.75" y="-119.12" font-family="sans-serif" font-size="12.00"> &#160;&#160;&#160;&#160;&#160;&#160;&#160;&#160;&#160;&#160;&#160;&#160;&#160;&#160;&#160;&#160;&#160;&#160;&#160;&#160;&#160;&#160;&#160;&#160;&#160;&#160;&#160;&#160;&#160;&#160;&#160;&#160;&#160;&#160;&#160;&#160;&#160;&#160;&#160;</text>
<polygon fill="white" stroke="transparent" points="730.2,-76.19 730.2,-95.19 746.2,-95.19 746.2,-76.19 730.2,-76.19"/>
<polyline fill="none" stroke="black" points="746.2,-76.19 746.2,-95.19 "/>
<text text-anchor="start" x="733.2" y="-82.59" font-family="sans-serif" font-size="12.00">D</text>
<polygon fill="white" stroke="transparent" points="746.2,-76.19 746.2,-95.19 776.2,-95.19 776.2,-76.19 746.2,-76.19"/>
<polygon fill="none" stroke="black" points="746.2,-76.19 746.2,-95.19 776.2,-95.19 776.2,-76.19 746.2,-76.19"/>
<text text-anchor="start" x="749.2" y="-82.59" font-family="sans-serif" font-size="12.00">ACL</text>
<polygon fill="white" stroke="transparent" points="912.54,-148.28 912.54,-167.28 928.54,-167.28 928.54,-148.28 912.54,-148.28"/>
<polyline fill="none" stroke="black" points="928.54,-148.28 928.54,-167.28 "/>
<text text-anchor="start" x="915.54" y="-154.68" font-family="sans-serif" font-size="12.00">U</text>
<polygon fill="white" stroke="transparent" points="928.54,-148.28 928.54,-167.28 983.54,-167.28 983.54,-148.28 928.54,-148.28"/>
<polygon fill="none" stroke="black" points="928.54,-148.28 928.54,-167.28 983.54,-167.28 983.54,-148.28 928.54,-148.28"/>
<text text-anchor="start" x="931.54" y="-154.68" font-family="sans-serif" font-size="12.00">OHS, PL</text>
</g>
<!-- RemoteWorkBC -->
<g id="node4" class="node">
<title>RemoteWorkBC</title>
<polygon fill="none" stroke="black" stroke-width="2" points="1147.99,-30.1 1151.43,-32.67 1154.56,-35.27 1157.35,-37.9 1159.79,-40.55 1161.88,-43.2 1163.6,-45.84 1164.94,-48.47 1165.9,-51.08 1166.47,-53.65 1166.65,-56.18 1166.43,-58.66 1165.82,-61.08 1164.8,-63.43 1163.4,-65.72 1161.6,-67.92 1159.41,-70.04 1156.85,-72.07 1153.92,-74.01 1150.63,-75.84 1146.99,-77.58 1143.02,-79.21 1138.73,-80.74 1134.13,-82.16 1129.25,-83.46 1124.1,-84.66 1118.7,-85.75 1113.07,-86.73 1107.24,-87.6 1101.21,-88.37 1095.03,-89.02 1088.7,-89.57 1082.25,-90.02 1075.71,-90.37 1069.09,-90.62 1062.43,-90.77 1055.73,-90.83 1049.04,-90.79 1042.35,-90.67 1035.71,-90.46 1029.13,-90.16 1022.63,-89.78 1016.23,-89.32 1009.95,-88.78 1003.8,-88.17 997.81,-87.48 991.98,-86.71 986.34,-85.88 980.9,-84.97 975.67,-83.99 970.66,-82.95 965.88,-81.83 961.34,-80.65 957.06,-79.41 953.03,-78.09 949.26,-76.71 945.76,-75.27 942.54,-73.76 939.59,-72.19 936.92,-70.56 934.53,-68.87 932.42,-67.11 930.6,-65.3 929.05,-63.43 927.79,-61.51 926.8,-59.53 926.09,-57.51 925.66,-55.43 925.5,-53.32 925.61,-51.16 925.99,-48.97 926.63,-46.75 927.52,-44.5 928.68,-42.23 930.09,-39.95 931.74,-37.66 933.64,-35.37 935.79,-33.08 938.16,-30.81 940.77,-28.55 943.61,-26.33 946.67,-24.14 949.95,-21.99 953.45,-19.9 957.15,-17.87 961.05,-15.91 965.16,-14.03 969.45,-12.24 973.94,-10.54 978.6,-8.94 983.43,-7.46 988.42,-6.09 993.58,-4.85 998.88,-3.74 1004.31,-2.77 1009.88,-1.95 1015.56,-1.27 1021.35,-0.75 1027.23,-0.39 1033.19,-0.18 1039.22,-0.14 1045.3,-0.26 1051.41,-0.55 1057.55,-1 1063.7,-1.61 1069.84,-2.39 1075.94,-3.33 1082,-4.42 1088,-5.66 1093.91,-7.06 1099.72,-8.59 1105.41,-10.26 1110.96,-12.06 1116.35,-13.98 1121.56,-16.02 1126.57,-18.16 1131.36,-20.39 1135.92,-22.71 1140.22,-25.11 1144.25,-27.58 1147.99,-30.1"/>
<text text-anchor="middle" x="1040.25" y="-45.06" font-family="sans-serif" font-size="16.00">RemoteWorkBC</text>
</g>
<!-- ArchitectureMigrationBC&#45;&gt;RemoteWorkBC -->
<g id="edge3" class="edge">
<title>ArchitectureMigrationBC&#45;&gt;RemoteWorkBC</title>
<path fill="none" stroke="black" stroke-width="2" d="M1040.25,-151.75C1040.25,-132.62 1040.25,-109.91 1040.25,-90.79"/>
<text text-anchor="middle" x="1082.25" y="-119.12" font-family="sans-serif" font-size="12.00">Shared Kernel</text>
</g>
<!-- LegalDifferenceBC -->
<g id="node5" class="node">
<title>LegalDifferenceBC</title>
<polygon fill="none" stroke="black" stroke-width="2" points="1380,-7.43 1388.42,-8.36 1396.66,-9.39 1404.69,-10.53 1412.47,-11.77 1419.98,-13.11 1427.18,-14.54 1434.04,-16.05 1440.54,-17.65 1446.65,-19.33 1452.35,-21.08 1457.62,-22.9 1462.45,-24.78 1466.8,-26.71 1470.68,-28.7 1474.07,-30.74 1476.96,-32.81 1479.36,-34.92 1481.24,-37.06 1482.62,-39.22 1483.5,-41.4 1483.88,-43.6 1483.77,-45.8 1483.17,-48.01 1482.11,-50.21 1480.58,-52.41 1478.62,-54.59 1476.23,-56.75 1473.43,-58.89 1470.25,-61.01 1466.69,-63.09 1462.8,-65.13 1458.58,-67.13 1454.06,-69.08 1449.26,-70.98 1444.22,-72.83 1438.94,-74.62 1433.46,-76.34 1427.79,-78 1421.97,-79.58 1416,-81.08 1409.92,-82.51 1403.74,-83.86 1397.49,-85.11 1391.18,-86.28 1384.83,-87.35 1378.45,-88.33 1372.06,-89.21 1365.67,-89.98 1359.3,-90.66 1352.96,-91.22 1346.66,-91.68 1340.4,-92.02 1334.2,-92.25 1328.06,-92.37 1322,-92.38 1316,-92.26 1310.09,-92.03 1304.26,-91.69 1298.52,-91.23 1292.87,-90.65 1287.31,-89.95 1281.86,-89.14 1276.5,-88.22 1271.26,-87.18 1266.12,-86.03 1261.1,-84.78 1256.19,-83.42 1251.41,-81.96 1246.77,-80.4 1242.26,-78.75 1237.89,-77 1233.68,-75.17 1229.63,-73.26 1225.75,-71.27 1222.05,-69.21 1218.55,-67.09 1215.25,-64.91 1212.18,-62.67 1209.33,-60.39 1206.73,-58.07 1204.39,-55.72 1202.33,-53.34 1200.56,-50.94 1199.09,-48.54 1197.93,-46.12 1197.11,-43.72 1196.64,-41.32 1196.52,-38.95 1196.78,-36.6 1197.42,-34.28 1198.45,-32.01 1199.89,-29.79 1201.73,-27.62 1203.99,-25.51 1206.67,-23.47 1209.77,-21.51 1213.29,-19.63 1217.24,-17.84 1221.6,-16.14 1226.37,-14.53 1231.55,-13.03 1237.11,-11.64 1243.06,-10.36 1249.37,-9.19 1256.03,-8.14 1263.02,-7.22 1270.32,-6.41 1277.89,-5.73 1285.73,-5.18 1293.79,-4.75 1302.05,-4.45 1310.48,-4.28 1319.05,-4.24 1327.73,-4.33 1336.47,-4.54 1345.25,-4.88 1354.03,-5.34 1362.77,-5.92 1371.44,-6.62 1380,-7.43"/>
<text text-anchor="middle" x="1334.25" y="-45.06" font-family="sans-serif" font-size="16.00">LegalDifferenceBC</text>
</g>
<!-- ArchitectureMigrationBC&#45;&gt;LegalDifferenceBC -->
<g id="edge4" class="edge">
<title>ArchitectureMigrationBC&#45;&gt;LegalDifferenceBC</title>
<path fill="none" stroke="black" stroke-width="2" d="M1118.26,-154.77C1162.83,-133.12 1218.34,-106.16 1261.93,-84.99"/>
<text text-anchor="middle" x="1238.25" y="-119.12" font-family="sans-serif" font-size="12.00">Shared Kernel</text>
</g>
<!-- ServiceLatencyBC -->
<g id="node6" class="node">
<title>ServiceLatencyBC</title>
<polygon fill="none" stroke="black" stroke-width="2" points="1658.49,-5.27 1667.26,-5.51 1675.94,-5.87 1684.5,-6.34 1692.89,-6.94 1701.09,-7.64 1709.06,-8.46 1716.77,-9.39 1724.2,-10.43 1731.31,-11.58 1738.08,-12.83 1744.49,-14.17 1750.51,-15.61 1756.13,-17.14 1761.33,-18.76 1766.09,-20.46 1770.4,-22.24 1774.26,-24.09 1777.66,-26.01 1780.59,-28 1783.04,-30.04 1785.03,-32.13 1786.56,-34.27 1787.62,-36.44 1788.23,-38.65 1788.39,-40.89 1788.12,-43.15 1787.43,-45.43 1786.33,-47.72 1784.84,-50.01 1782.97,-52.29 1780.74,-54.57 1778.17,-56.83 1775.28,-59.07 1772.08,-61.28 1768.6,-63.46 1764.86,-65.6 1760.87,-67.69 1756.65,-69.73 1752.23,-71.71 1747.62,-73.63 1742.84,-75.48 1737.91,-77.26 1732.83,-78.96 1727.63,-80.58 1722.33,-82.11 1716.93,-83.55 1711.44,-84.9 1705.89,-86.14 1700.27,-87.29 1694.6,-88.33 1688.88,-89.26 1683.13,-90.08 1677.35,-90.79 1671.54,-91.38 1665.72,-91.86 1659.88,-92.21 1654.03,-92.45 1648.17,-92.57 1642.32,-92.57 1636.46,-92.45 1630.61,-92.21 1624.78,-91.86 1618.95,-91.38 1613.14,-90.79 1607.36,-90.08 1601.61,-89.26 1595.9,-88.33 1590.22,-87.29 1584.61,-86.14 1579.05,-84.9 1573.56,-83.55 1568.16,-82.11 1562.86,-80.58 1557.66,-78.96 1552.59,-77.26 1547.65,-75.48 1542.87,-73.63 1538.26,-71.71 1533.84,-69.73 1529.62,-67.69 1525.63,-65.6 1521.89,-63.46 1518.41,-61.28 1515.21,-59.07 1512.32,-56.83 1509.75,-54.57 1507.52,-52.29 1505.65,-50.01 1504.16,-47.72 1503.06,-45.43 1502.37,-43.15 1502.1,-40.89 1502.26,-38.65 1502.87,-36.44 1503.93,-34.27 1505.46,-32.13 1507.45,-30.04 1509.91,-28 1512.83,-26.01 1516.23,-24.09 1520.09,-22.24 1524.4,-20.46 1529.16,-18.76 1534.36,-17.14 1539.98,-15.61 1546,-14.17 1552.41,-12.83 1559.18,-11.58 1566.29,-10.43 1573.72,-9.39 1581.43,-8.46 1589.4,-7.64 1597.6,-6.94 1606,-6.34 1614.55,-5.87 1623.23,-5.51 1632,-5.27 1640.82,-5.15 1649.67,-5.15 1658.49,-5.27"/>
<text text-anchor="middle" x="1645.25" y="-45.06" font-family="sans-serif" font-size="16.00">ServiceLatencyBC</text>
</g>
<!-- ArchitectureMigrationBC&#45;&gt;ServiceLatencyBC -->
<g id="edge5" class="edge">
<title>ArchitectureMigrationBC&#45;&gt;ServiceLatencyBC</title>
<path fill="none" stroke="black" stroke-width="2" d="M1174.35,-168.16C1264.94,-150.72 1386.94,-125.53 1493.25,-97.72 1514.26,-92.23 1536.67,-85.6 1557.66,-79.06"/>
<text text-anchor="middle" x="1462.25" y="-119.12" font-family="sans-serif" font-size="12.00">Shared Kernel</text>
</g>
<!-- ConquerLatamMarketBC -->
<g id="node7" class="node">
<title>ConquerLatamMarketBC</title>
<polygon fill="none" stroke="black" stroke-width="2" points="882.39,-321.88 886.33,-319.2 890.68,-316.58 895.43,-314.03 900.55,-311.56 906.04,-309.19 911.86,-306.92 918.02,-304.76 924.47,-302.72 931.21,-300.81 938.21,-299.04 945.45,-297.4 952.91,-295.91 960.57,-294.58 968.41,-293.39 976.4,-292.37 984.53,-291.51 992.78,-290.82 1001.11,-290.28 1009.52,-289.91 1017.98,-289.71 1026.46,-289.66 1034.96,-289.77 1043.44,-290.04 1051.89,-290.46 1060.29,-291.03 1068.63,-291.74 1076.87,-292.58 1085.01,-293.56 1093.02,-294.66 1100.89,-295.88 1108.6,-297.2 1116.14,-298.63 1123.48,-300.16 1130.61,-301.77 1137.51,-303.46 1144.17,-305.22 1150.58,-307.05 1156.72,-308.93 1162.57,-310.87 1168.12,-312.84 1173.37,-314.85 1178.28,-316.89 1182.86,-318.94 1187.08,-321.02 1190.95,-323.1 1194.44,-325.19 1197.55,-327.28 1200.27,-329.37 1202.58,-331.44 1204.48,-333.51 1205.97,-335.55 1207.02,-337.58 1207.65,-339.59 1207.84,-341.57 1207.59,-343.53 1206.9,-345.45 1205.76,-347.35 1204.17,-349.22 1202.13,-351.05 1199.65,-352.85 1196.73,-354.62 1193.36,-356.35 1189.57,-358.04 1185.34,-359.7 1180.69,-361.31 1175.64,-362.89 1170.18,-364.42 1164.34,-365.91 1158.12,-367.35 1151.54,-368.75 1144.62,-370.09 1137.38,-371.39 1129.82,-372.63 1121.98,-373.81 1113.88,-374.93 1105.53,-375.98 1096.97,-376.97 1088.21,-377.88 1079.29,-378.72 1070.22,-379.48 1061.04,-380.15 1051.78,-380.73 1042.45,-381.22 1033.1,-381.61 1023.75,-381.9 1014.43,-382.08 1005.17,-382.15 996,-382.1 986.95,-381.94 978.05,-381.65 969.32,-381.24 960.8,-380.7 952.51,-380.03 944.49,-379.23 936.74,-378.29 929.31,-377.22 922.2,-376.02 915.46,-374.69 909.08,-373.23 903.11,-371.63 897.55,-369.91 892.42,-368.07 887.73,-366.11 883.5,-364.03 879.75,-361.85 876.47,-359.57 873.68,-357.19 871.39,-354.72 869.6,-352.18 868.3,-349.57 867.51,-346.89 867.23,-344.17 867.44,-341.41 868.15,-338.61 869.35,-335.8 871.03,-332.99 873.18,-330.17 875.8,-327.38 878.88,-324.61 882.39,-321.88"/>
<text text-anchor="middle" x="1040.25" y="-334.26" font-family="sans-serif" font-size="16.00">ConquerLatamMarketBC</text>
</g>
<!-- ConquerLatamMarketBC&#45;&gt;ArchitectureMigrationBC -->
<g id="edge6" class="edge">
<title>ConquerLatamMarketBC&#45;&gt;ArchitectureMigrationBC</title>
<path fill="none" stroke="black" stroke-width="2" d="M1040.25,-289.65C1040.25,-273.79 1040.25,-256.16 1040.25,-240.43"/>
<text text-anchor="middle" x="1115.75" y="-262.01" font-family="sans-serif" font-size="12.00"> &#160;&#160;&#160;&#160;&#160;&#160;&#160;&#160;&#160;&#160;&#160;&#160;&#160;&#160;&#160;&#160;&#160;&#160;&#160;&#160;&#160;&#160;&#160;&#160;&#160;&#160;&#160;&#160;&#160;&#160;&#160;&#160;&#160;&#160;&#160;&#160;&#160;&#160;&#160;</text>
<polygon fill="white" stroke="transparent" points="1017.25,-230.43 1017.25,-249.43 1033.25,-249.43 1033.25,-230.43 1017.25,-230.43"/>
<polyline fill="none" stroke="black" points="1033.25,-230.43 1033.25,-249.43 "/>
<text text-anchor="start" x="1020.25" y="-236.83" font-family="sans-serif" font-size="12.00">D</text>
<polygon fill="white" stroke="transparent" points="1033.25,-230.43 1033.25,-249.43 1063.25,-249.43 1063.25,-230.43 1033.25,-230.43"/>
<polygon fill="none" stroke="black" points="1033.25,-230.43 1033.25,-249.43 1063.25,-249.43 1063.25,-230.43 1033.25,-230.43"/>
<text text-anchor="start" x="1036.25" y="-236.83" font-family="sans-serif" font-size="12.00">ACL</text>
<polygon fill="white" stroke="transparent" points="1005.25,-279.65 1005.25,-298.65 1021.25,-298.65 1021.25,-279.65 1005.25,-279.65"/>
<polyline fill="none" stroke="black" points="1021.25,-279.65 1021.25,-298.65 "/>
<text text-anchor="start" x="1008.25" y="-286.05" font-family="sans-serif" font-size="12.00">U</text>
<polygon fill="white" stroke="transparent" points="1021.25,-279.65 1021.25,-298.65 1076.25,-298.65 1076.25,-279.65 1021.25,-279.65"/>
<polygon fill="none" stroke="black" points="1021.25,-279.65 1021.25,-298.65 1076.25,-298.65 1076.25,-279.65 1021.25,-279.65"/>
<text text-anchor="start" x="1024.25" y="-286.05" font-family="sans-serif" font-size="12.00">OHS, PL</text>
</g>
<!-- GlobalExpansionMenaEneaOceaniaBC -->
<g id="node8" class="node">
<title>GlobalExpansionMenaEneaOceaniaBC</title>
<polygon fill="none" stroke="black" stroke-width="2" points="816.16,-465.12 822.97,-462.5 830.36,-459.95 838.29,-457.49 846.75,-455.11 855.7,-452.83 865.1,-450.66 874.94,-448.61 885.17,-446.68 895.76,-444.89 906.68,-443.23 917.9,-441.72 929.38,-440.37 941.1,-439.17 953.01,-438.12 965.08,-437.25 977.29,-436.53 989.6,-435.98 1001.99,-435.6 1014.41,-435.38 1026.83,-435.32 1039.24,-435.43 1051.6,-435.7 1063.88,-436.12 1076.06,-436.7 1088.1,-437.42 1099.99,-438.28 1111.69,-439.28 1123.18,-440.4 1134.45,-441.65 1145.46,-443.01 1156.19,-444.48 1166.63,-446.05 1176.74,-447.71 1186.52,-449.46 1195.93,-451.28 1204.96,-453.17 1213.6,-455.11 1221.82,-457.11 1229.6,-459.16 1236.92,-461.24 1243.78,-463.34 1250.15,-465.48 1256.02,-467.62 1261.38,-469.78 1266.19,-471.94 1270.47,-474.1 1274.18,-476.25 1277.32,-478.39 1279.88,-480.51 1281.84,-482.61 1283.2,-484.69 1283.95,-486.74 1284.07,-488.77 1283.56,-490.76 1282.43,-492.71 1280.65,-494.63 1278.24,-496.51 1275.18,-498.36 1271.48,-500.16 1267.15,-501.92 1262.18,-503.64 1256.59,-505.31 1250.37,-506.94 1243.55,-508.52 1236.13,-510.06 1228.12,-511.54 1219.55,-512.98 1210.43,-514.37 1200.78,-515.7 1190.62,-516.98 1179.99,-518.21 1168.9,-519.37 1157.38,-520.48 1145.47,-521.52 1133.19,-522.49 1120.59,-523.4 1107.7,-524.23 1094.55,-524.99 1081.19,-525.67 1067.65,-526.26 1053.98,-526.77 1040.22,-527.18 1026.42,-527.51 1012.61,-527.73 998.85,-527.85 985.17,-527.86 971.62,-527.76 958.25,-527.55 945.1,-527.22 932.21,-526.77 919.64,-526.2 907.41,-525.5 895.57,-524.68 884.17,-523.73 873.23,-522.66 862.79,-521.45 852.9,-520.12 843.57,-518.66 834.85,-517.08 826.75,-515.37 819.31,-513.55 812.55,-511.61 806.48,-509.55 801.13,-507.4 796.51,-505.14 792.63,-502.79 789.5,-500.36 787.12,-497.85 785.51,-495.26 784.65,-492.62 784.56,-489.93 785.21,-487.19 786.61,-484.43 788.75,-481.64 791.61,-478.84 795.18,-476.05 799.44,-473.27 804.37,-470.51 809.95,-467.79 816.16,-465.12"/>
<text text-anchor="middle" x="1040.25" y="-480.4" font-family="sans-serif" font-size="16.00">GlobalExpansionMenaEneaOceaniaBC</text>
</g>
<!-- GlobalExpansionMenaEneaOceaniaBC&#45;&gt;ConquerLatamMarketBC -->
<g id="edge7" class="edge">
<title>GlobalExpansionMenaEneaOceaniaBC&#45;&gt;ConquerLatamMarketBC</title>
<path fill="none" stroke="black" stroke-width="2" d="M1040.25,-435.21C1040.25,-417.85 1040.25,-398.38 1040.25,-381.53"/>
<text text-anchor="middle" x="1115.75" y="-407.92" font-family="sans-serif" font-size="12.00"> &#160;&#160;&#160;&#160;&#160;&#160;&#160;&#160;&#160;&#160;&#160;&#160;&#160;&#160;&#160;&#160;&#160;&#160;&#160;&#160;&#160;&#160;&#160;&#160;&#160;&#160;&#160;&#160;&#160;&#160;&#160;&#160;&#160;&#160;&#160;&#160;&#160;&#160;&#160;</text>
<polygon fill="white" stroke="transparent" points="1017.25,-371.53 1017.25,-390.53 1033.25,-390.53 1033.25,-371.53 1017.25,-371.53"/>
<polyline fill="none" stroke="black" points="1033.25,-371.53 1033.25,-390.53 "/>
<text text-anchor="start" x="1020.25" y="-377.93" font-family="sans-serif" font-size="12.00">D</text>
<polygon fill="white" stroke="transparent" points="1033.25,-371.53 1033.25,-390.53 1063.25,-390.53 1063.25,-371.53 1033.25,-371.53"/>
<polygon fill="none" stroke="black" points="1033.25,-371.53 1033.25,-390.53 1063.25,-390.53 1063.25,-371.53 1033.25,-371.53"/>
<text text-anchor="start" x="1036.25" y="-377.93" font-family="sans-serif" font-size="12.00">ACL</text>
<polygon fill="white" stroke="transparent" points="1005.25,-425.21 1005.25,-444.21 1021.25,-444.21 1021.25,-425.21 1005.25,-425.21"/>
<polyline fill="none" stroke="black" points="1021.25,-425.21 1021.25,-444.21 "/>
<text text-anchor="start" x="1008.25" y="-431.61" font-family="sans-serif" font-size="12.00">U</text>
<polygon fill="white" stroke="transparent" points="1021.25,-425.21 1021.25,-444.21 1076.25,-444.21 1076.25,-425.21 1021.25,-425.21"/>
<polygon fill="none" stroke="black" points="1021.25,-425.21 1021.25,-444.21 1076.25,-444.21 1076.25,-425.21 1021.25,-425.21"/>
<text text-anchor="start" x="1024.25" y="-431.61" font-family="sans-serif" font-size="12.00">OHS, PL</text>
</g>
</g>
</svg>
