<svg width="2000px" height="2054px"
 viewBox="0.00 0.00 735.96 755.90" xmlns="http://www.w3.org/2000/svg" xmlns:xlink="http://www.w3.org/1999/xlink">
<g id="graph0" class="graph" transform="scale(1.0 1.0) rotate(0) translate(4 751.9)">
<title>ContextMapGraph</title>
<polygon fill="white" stroke="transparent" points="-4,4 -4,-751.9 731.96,-751.9 731.96,4 -4,4"/>
<!-- CommercialRealEstateInformationBC -->
<g id="node1" class="node">
<title>CommercialRealEstateInformationBC</title>
<polygon fill="none" stroke="black" stroke-width="2" points="445.95,-1.5 461.19,-2.19 476.16,-2.99 490.82,-3.9 505.09,-4.92 518.92,-6.04 532.25,-7.26 545.03,-8.58 557.22,-10 568.76,-11.5 579.61,-13.09 589.74,-14.75 599.11,-16.49 607.69,-18.3 615.45,-20.18 622.38,-22.11 628.45,-24.1 633.66,-26.14 637.99,-28.22 641.44,-30.34 644.02,-32.5 645.74,-34.68 646.59,-36.88 646.59,-39.1 645.77,-41.33 644.13,-43.56 641.72,-45.8 638.55,-48.03 634.65,-50.24 630.06,-52.44 624.8,-54.62 618.93,-56.77 612.46,-58.88 605.45,-60.96 597.92,-63 589.93,-64.98 581.51,-66.92 572.69,-68.79 563.52,-70.6 554.03,-72.35 544.27,-74.02 534.26,-75.62 524.04,-77.13 513.65,-78.56 503.11,-79.91 492.45,-81.16 481.71,-82.31 470.9,-83.37 460.04,-84.33 449.17,-85.18 438.29,-85.92 427.43,-86.55 416.6,-87.07 405.81,-87.48 395.08,-87.77 384.41,-87.95 373.82,-88 363.32,-87.94 352.91,-87.76 342.6,-87.46 332.39,-87.04 322.3,-86.51 312.32,-85.85 302.47,-85.08 292.76,-84.19 283.19,-83.19 273.76,-82.08 264.5,-80.86 255.4,-79.54 246.49,-78.12 237.78,-76.59 229.27,-74.97 221,-73.26 212.97,-71.47 205.2,-69.59 197.73,-67.64 190.56,-65.62 183.73,-63.54 177.26,-61.39 171.18,-59.19 165.5,-56.95 160.27,-54.67 155.52,-52.35 151.26,-50.01 147.53,-47.65 144.35,-45.27 141.77,-42.89 139.79,-40.52 138.46,-38.15 137.8,-35.79 137.82,-33.47 138.55,-31.17 140.01,-28.91 142.22,-26.69 145.19,-24.52 148.93,-22.41 153.45,-20.36 158.75,-18.39 164.83,-16.48 171.68,-14.66 179.31,-12.93 187.69,-11.29 196.81,-9.74 206.66,-8.29 217.2,-6.95 228.4,-5.71 240.24,-4.59 252.68,-3.58 265.67,-2.69 279.18,-1.91 293.14,-1.26 307.53,-0.73 322.27,-0.32 337.31,-0.04 352.59,0.12 368.06,0.16 383.65,0.07 399.3,-0.14 414.94,-0.48 430.51,-0.93 445.95,-1.5"/>
<text text-anchor="middle" x="385.24" y="-40.36" font-family="sans-serif" font-size="16.00">CommercialRealEstateInformationBC</text>
</g>
<!-- LeaseTransactionsBC -->
<g id="node2" class="node">
<title>LeaseTransactionsBC</title>
<polygon fill="none" stroke="black" stroke-width="2" points="124.09,-586.07 116.85,-584.12 109.95,-582.1 103.41,-580.01 97.26,-577.86 91.52,-575.66 86.22,-573.41 81.39,-571.13 77.04,-568.82 73.18,-566.5 69.85,-564.15 67.05,-561.81 64.79,-559.47 63.08,-557.13 61.92,-554.81 61.33,-552.52 61.29,-550.25 61.81,-548.01 62.89,-545.82 64.51,-543.67 66.66,-541.56 69.34,-539.52 72.53,-537.52 76.21,-535.59 80.36,-533.73 84.97,-531.93 90,-530.2 95.44,-528.54 101.26,-526.96 107.44,-525.45 113.94,-524.02 120.73,-522.67 127.8,-521.4 135.1,-520.22 142.61,-519.11 150.3,-518.09 158.14,-517.16 166.1,-516.31 174.14,-515.54 182.25,-514.86 190.39,-514.27 198.54,-513.77 206.67,-513.36 214.76,-513.03 222.78,-512.8 230.72,-512.65 238.54,-512.6 246.24,-512.63 253.79,-512.76 261.17,-512.99 268.38,-513.3 275.4,-513.72 282.22,-514.22 288.83,-514.82 295.21,-515.52 301.36,-516.31 307.28,-517.2 312.95,-518.18 318.37,-519.26 323.54,-520.43 328.45,-521.7 333.11,-523.06 337.5,-524.52 341.64,-526.06 345.51,-527.69 349.11,-529.41 352.45,-531.21 355.52,-533.09 358.32,-535.04 360.85,-537.07 363.11,-539.17 365.1,-541.33 366.81,-543.55 368.25,-545.82 369.4,-548.14 370.27,-550.5 370.86,-552.89 371.15,-555.31 371.15,-557.75 370.85,-560.2 370.24,-562.66 369.33,-565.11 368.1,-567.54 366.55,-569.96 364.68,-572.34 362.49,-574.69 359.96,-576.99 357.1,-579.23 353.9,-581.41 350.36,-583.51 346.49,-585.54 342.27,-587.47 337.71,-589.31 332.82,-591.05 327.59,-592.67 322.03,-594.17 316.16,-595.55 309.96,-596.8 303.47,-597.92 296.68,-598.9 289.61,-599.73 282.27,-600.42 274.69,-600.96 266.88,-601.35 258.86,-601.58 250.65,-601.66 242.27,-601.59 233.76,-601.37 225.14,-601 216.44,-600.47 207.67,-599.81 198.89,-598.99 190.11,-598.04 181.37,-596.96 172.71,-595.74 164.15,-594.4 155.73,-592.95 147.48,-591.38 139.43,-589.7 131.62,-587.93 124.09,-586.07"/>
<text text-anchor="middle" x="228.24" y="-550.53" font-family="sans-serif" font-size="16.00">LeaseTransactionsBC</text>
</g>
<!-- TenantInformationBC -->
<g id="node3" class="node">
<title>TenantInformationBC</title>
<polygon fill="none" stroke="black" stroke-width="2" points="17.46,-340.27 13.73,-337.62 10.41,-334.94 7.51,-332.25 5.06,-329.55 3.06,-326.85 1.52,-324.17 0.45,-321.51 -0.14,-318.88 -0.24,-316.3 0.14,-313.77 1.02,-311.3 2.38,-308.9 4.22,-306.58 6.55,-304.33 9.36,-302.18 12.63,-300.12 16.36,-298.16 20.53,-296.31 25.14,-294.56 30.16,-292.92 35.57,-291.39 41.37,-289.98 47.52,-288.68 54.01,-287.5 60.81,-286.44 67.9,-285.49 75.25,-284.65 82.84,-283.93 90.64,-283.33 98.63,-282.83 106.76,-282.44 115.02,-282.16 123.38,-281.98 131.81,-281.9 140.28,-281.92 148.75,-282.04 157.22,-282.24 165.64,-282.54 173.98,-282.92 182.24,-283.39 190.37,-283.93 198.35,-284.55 206.17,-285.25 213.79,-286.02 221.21,-286.86 228.39,-287.78 235.32,-288.76 241.98,-289.8 248.37,-290.91 254.45,-292.08 260.22,-293.31 265.68,-294.61 270.8,-295.96 275.58,-297.38 280.01,-298.85 284.09,-300.38 287.8,-301.97 291.15,-303.61 294.14,-305.31 296.75,-307.06 298.99,-308.86 300.87,-310.72 302.37,-312.62 303.51,-314.58 304.28,-316.57 304.69,-318.61 304.73,-320.69 304.43,-322.81 303.77,-324.96 302.77,-327.14 301.42,-329.34 299.75,-331.56 297.74,-333.79 295.41,-336.03 292.76,-338.28 289.81,-340.52 286.55,-342.74 283,-344.95 279.15,-347.13 275.03,-349.28 270.63,-351.39 265.97,-353.44 261.04,-355.44 255.87,-357.37 250.46,-359.23 244.82,-361 238.95,-362.68 232.88,-364.26 226.6,-365.73 220.13,-367.09 213.48,-368.33 206.67,-369.43 199.7,-370.4 192.59,-371.23 185.35,-371.91 178.01,-372.44 170.56,-372.81 163.04,-373.03 155.45,-373.08 147.82,-372.97 140.16,-372.69 132.49,-372.25 124.83,-371.64 117.21,-370.87 109.63,-369.93 102.14,-368.84 94.73,-367.6 87.45,-366.2 80.31,-364.66 73.33,-362.98 66.54,-361.16 59.95,-359.22 53.6,-357.17 47.5,-355.01 41.68,-352.74 36.16,-350.39 30.96,-347.95 26.09,-345.45 21.59,-342.89 17.46,-340.27"/>
<text text-anchor="middle" x="158.24" y="-320.51" font-family="sans-serif" font-size="16.00">TenantInformationBC</text>
</g>
<!-- LeaseTransactionsBC&#45;&gt;TenantInformationBC -->
<g id="edge1" class="edge">
<title>LeaseTransactionsBC&#45;&gt;TenantInformationBC</title>
<path fill="none" stroke="black" stroke-width="2" d="M159.43,-516.9C150.1,-508.95 141.82,-499.64 136.24,-488.92 117.52,-452.95 126.21,-406.76 137.74,-372.64"/>
<text text-anchor="middle" x="211.74" y="-436.96" font-family="sans-serif" font-size="12.00"> &#160;&#160;&#160;&#160;&#160;&#160;&#160;&#160;&#160;&#160;&#160;&#160;&#160;&#160;&#160;&#160;&#160;&#160;&#160;&#160;&#160;&#160;&#160;&#160;&#160;&#160;&#160;&#160;&#160;&#160;&#160;&#160;&#160;&#160;&#160;&#160;&#160;&#160;&#160;</text>
<polygon fill="white" stroke="transparent" points="114.74,-362.64 114.74,-381.64 130.74,-381.64 130.74,-362.64 114.74,-362.64"/>
<polyline fill="none" stroke="black" points="130.74,-362.64 130.74,-381.64 "/>
<text text-anchor="start" x="117.74" y="-369.04" font-family="sans-serif" font-size="12.00">D</text>
<polygon fill="white" stroke="transparent" points="130.74,-362.64 130.74,-381.64 160.74,-381.64 160.74,-362.64 130.74,-362.64"/>
<polygon fill="none" stroke="black" points="130.74,-362.64 130.74,-381.64 160.74,-381.64 160.74,-362.64 130.74,-362.64"/>
<text text-anchor="start" x="133.74" y="-369.04" font-family="sans-serif" font-size="12.00">ACL</text>
<polygon fill="white" stroke="transparent" points="152.43,-507.9 152.43,-524.9 166.43,-524.9 166.43,-507.9 152.43,-507.9"/>
<text text-anchor="start" x="154.43" y="-513.3" font-family="sans-serif" font-size="12.00">U</text>
</g>
<!-- RentalAndSalesListingsBC -->
<g id="node4" class="node">
<title>RentalAndSalesListingsBC</title>
<polygon fill="none" stroke="black" stroke-width="2" points="241.1,-138.35 252.7,-137.89 264.3,-137.55 275.86,-137.34 287.32,-137.25 298.64,-137.29 309.78,-137.46 320.7,-137.76 331.36,-138.19 341.71,-138.74 351.72,-139.42 361.36,-140.23 370.59,-141.16 379.39,-142.2 387.73,-143.37 395.59,-144.65 402.95,-146.05 409.79,-147.54 416.09,-149.15 421.86,-150.85 427.07,-152.64 431.73,-154.52 435.82,-156.48 439.36,-158.52 442.35,-160.63 444.78,-162.8 446.68,-165.02 448.04,-167.3 448.89,-169.61 449.23,-171.96 449.08,-174.33 448.45,-176.73 447.37,-179.14 445.84,-181.55 443.9,-183.95 441.56,-186.35 438.83,-188.73 435.74,-191.08 432.3,-193.4 428.55,-195.68 424.48,-197.92 420.12,-200.1 415.5,-202.22 410.61,-204.28 405.49,-206.27 400.14,-208.18 394.57,-210.01 388.8,-211.76 382.84,-213.41 376.7,-214.97 370.38,-216.43 363.9,-217.79 357.27,-219.05 350.48,-220.19 343.54,-221.23 336.47,-222.15 329.26,-222.96 321.92,-223.66 314.46,-224.24 306.87,-224.7 299.16,-225.05 291.35,-225.27 283.43,-225.39 275.41,-225.38 267.3,-225.26 259.1,-225.03 250.84,-224.69 242.51,-224.23 234.13,-223.67 225.71,-222.99 217.28,-222.22 208.83,-221.34 200.4,-220.36 192.01,-219.29 183.67,-218.12 175.4,-216.87 167.24,-215.52 159.21,-214.1 151.33,-212.59 143.63,-211.01 136.14,-209.35 128.9,-207.63 121.92,-205.84 115.25,-204 108.92,-202.09 102.95,-200.14 97.37,-198.14 92.22,-196.1 87.53,-194.02 83.32,-191.9 79.62,-189.76 76.46,-187.6 73.87,-185.42 71.85,-183.22 70.45,-181.02 69.66,-178.81 69.51,-176.61 70.01,-174.42 71.17,-172.23 73,-170.07 75.49,-167.93 78.65,-165.82 82.47,-163.75 86.95,-161.71 92.08,-159.73 97.83,-157.79 104.21,-155.91 111.17,-154.09 118.7,-152.34 126.78,-150.66 135.37,-149.06 144.44,-147.55 153.95,-146.12 163.87,-144.78 174.15,-143.54 184.76,-142.4 195.65,-141.37 206.78,-140.44 218.09,-139.63 229.55,-138.93 241.1,-138.35"/>
<text text-anchor="middle" x="267.24" y="-178.07" font-family="sans-serif" font-size="16.00">RentalAndSalesListingsBC</text>
</g>
<!-- TenantInformationBC&#45;&gt;RentalAndSalesListingsBC -->
<g id="edge2" class="edge">
<title>TenantInformationBC&#45;&gt;RentalAndSalesListingsBC</title>
<path fill="none" stroke="black" stroke-width="2" d="M188.89,-283.82C203.38,-265.16 220.66,-242.89 235.3,-224.03"/>
<text text-anchor="middle" x="295.74" y="-247.83" font-family="sans-serif" font-size="12.00"> &#160;&#160;&#160;&#160;&#160;&#160;&#160;&#160;&#160;&#160;&#160;&#160;&#160;&#160;&#160;&#160;&#160;&#160;&#160;&#160;&#160;&#160;&#160;&#160;&#160;&#160;&#160;&#160;&#160;&#160;&#160;&#160;&#160;&#160;&#160;&#160;&#160;&#160;&#160;</text>
<polygon fill="white" stroke="transparent" points="212.3,-214.03 212.3,-233.03 228.3,-233.03 228.3,-214.03 212.3,-214.03"/>
<polyline fill="none" stroke="black" points="228.3,-214.03 228.3,-233.03 "/>
<text text-anchor="start" x="215.3" y="-220.43" font-family="sans-serif" font-size="12.00">D</text>
<polygon fill="white" stroke="transparent" points="228.3,-214.03 228.3,-233.03 258.3,-233.03 258.3,-214.03 228.3,-214.03"/>
<polygon fill="none" stroke="black" points="228.3,-214.03 228.3,-233.03 258.3,-233.03 258.3,-214.03 228.3,-214.03"/>
<text text-anchor="start" x="231.3" y="-220.43" font-family="sans-serif" font-size="12.00">ACL</text>
<polygon fill="white" stroke="transparent" points="164.89,-273.82 164.89,-292.82 180.89,-292.82 180.89,-273.82 164.89,-273.82"/>
<polyline fill="none" stroke="black" points="180.89,-273.82 180.89,-292.82 "/>
<text text-anchor="start" x="167.89" y="-280.22" font-family="sans-serif" font-size="12.00">U</text>
<polygon fill="white" stroke="transparent" points="180.89,-273.82 180.89,-292.82 213.89,-292.82 213.89,-273.82 180.89,-273.82"/>
<polygon fill="none" stroke="black" points="180.89,-273.82 180.89,-292.82 213.89,-292.82 213.89,-273.82 180.89,-273.82"/>
<text text-anchor="start" x="183.89" y="-280.22" font-family="sans-serif" font-size="12.00">OHS</text>
</g>
<!-- RentalAndSalesListingsBC&#45;&gt;CommercialRealEstateInformationBC -->
<g id="edge3" class="edge">
<title>RentalAndSalesListingsBC&#45;&gt;CommercialRealEstateInformationBC</title>
<path fill="none" stroke="black" stroke-width="2" d="M305.23,-137.18C318.97,-121.38 334.46,-103.56 348.13,-87.84"/>
<text text-anchor="middle" x="405.74" y="-109.71" font-family="sans-serif" font-size="12.00"> &#160;&#160;&#160;&#160;&#160;&#160;&#160;&#160;&#160;&#160;&#160;&#160;&#160;&#160;&#160;&#160;&#160;&#160;&#160;&#160;&#160;&#160;&#160;&#160;&#160;&#160;&#160;&#160;&#160;&#160;&#160;&#160;&#160;&#160;&#160;&#160;&#160;&#160;&#160;</text>
<polygon fill="white" stroke="transparent" points="325.13,-77.84 325.13,-96.84 341.13,-96.84 341.13,-77.84 325.13,-77.84"/>
<polyline fill="none" stroke="black" points="341.13,-77.84 341.13,-96.84 "/>
<text text-anchor="start" x="328.13" y="-84.24" font-family="sans-serif" font-size="12.00">D</text>
<polygon fill="white" stroke="transparent" points="341.13,-77.84 341.13,-96.84 371.13,-96.84 371.13,-77.84 341.13,-77.84"/>
<polygon fill="none" stroke="black" points="341.13,-77.84 341.13,-96.84 371.13,-96.84 371.13,-77.84 341.13,-77.84"/>
<text text-anchor="start" x="344.13" y="-84.24" font-family="sans-serif" font-size="12.00">ACL</text>
<polygon fill="white" stroke="transparent" points="270.23,-127.18 270.23,-146.18 286.23,-146.18 286.23,-127.18 270.23,-127.18"/>
<polyline fill="none" stroke="black" points="286.23,-127.18 286.23,-146.18 "/>
<text text-anchor="start" x="273.23" y="-133.58" font-family="sans-serif" font-size="12.00">U</text>
<polygon fill="white" stroke="transparent" points="286.23,-127.18 286.23,-146.18 341.23,-146.18 341.23,-127.18 286.23,-127.18"/>
<polygon fill="none" stroke="black" points="286.23,-127.18 286.23,-146.18 341.23,-146.18 341.23,-127.18 286.23,-127.18"/>
<text text-anchor="start" x="289.23" y="-133.58" font-family="sans-serif" font-size="12.00">OHS, PL</text>
</g>
<!-- MarketAndPropertyAnalysisBC -->
<g id="node5" class="node">
<title>MarketAndPropertyAnalysisBC</title>
<polygon fill="none" stroke="black" stroke-width="2" points="698.34,-421.99 704.03,-424.58 709.16,-427.2 713.73,-429.85 717.7,-432.51 721.06,-435.17 723.79,-437.83 725.88,-440.47 727.31,-443.08 728.08,-445.65 728.18,-448.18 727.6,-450.66 726.35,-453.08 724.42,-455.43 721.83,-457.7 718.57,-459.89 714.65,-462 710.1,-464.01 704.92,-465.93 699.13,-467.74 692.76,-469.45 685.82,-471.06 678.35,-472.56 670.36,-473.95 661.89,-475.22 652.97,-476.39 643.63,-477.44 633.91,-478.39 623.84,-479.22 613.47,-479.94 602.82,-480.56 591.93,-481.07 580.85,-481.48 569.61,-481.78 558.26,-481.99 546.83,-482.1 535.36,-482.11 523.89,-482.03 512.45,-481.87 501.09,-481.61 489.84,-481.28 478.74,-480.85 467.81,-480.35 457.09,-479.78 446.61,-479.12 436.4,-478.39 426.49,-477.59 416.89,-476.72 407.64,-475.78 398.76,-474.77 390.26,-473.69 382.17,-472.55 374.49,-471.34 367.25,-470.06 360.46,-468.72 354.12,-467.32 348.24,-465.86 342.84,-464.33 337.92,-462.74 333.48,-461.09 329.52,-459.38 326.05,-457.61 323.07,-455.79 320.58,-453.91 318.57,-451.98 317.04,-450 315.99,-447.97 315.42,-445.89 315.32,-443.78 315.68,-441.62 316.5,-439.43 317.78,-437.21 319.5,-434.97 321.67,-432.71 324.26,-430.44 327.29,-428.16 330.73,-425.88 334.58,-423.61 338.84,-421.35 343.5,-419.11 348.54,-416.9 353.96,-414.74 359.75,-412.61 365.91,-410.54 372.42,-408.54 379.27,-406.6 386.45,-404.75 393.95,-402.98 401.77,-401.31 409.88,-399.75 418.28,-398.29 426.95,-396.96 435.88,-395.75 445.05,-394.68 454.44,-393.75 464.04,-392.96 473.83,-392.32 483.78,-391.83 493.88,-391.5 504.11,-391.34 514.44,-391.33 524.85,-391.5 535.3,-391.82 545.79,-392.31 556.26,-392.97 566.71,-393.78 577.1,-394.76 587.39,-395.89 597.56,-397.17 607.58,-398.6 617.4,-400.18 627.01,-401.88 636.37,-403.72 645.45,-405.67 654.2,-407.74 662.61,-409.91 670.64,-412.18 678.25,-414.53 685.43,-416.95 692.14,-419.44 698.34,-421.99"/>
<text text-anchor="middle" x="512.24" y="-436.26" font-family="sans-serif" font-size="16.00">MarketAndPropertyAnalysisBC</text>
</g>
<!-- MarketAndPropertyAnalysisBC&#45;&gt;CommercialRealEstateInformationBC -->
<g id="edge4" class="edge">
<title>MarketAndPropertyAnalysisBC&#45;&gt;CommercialRealEstateInformationBC</title>
<path fill="none" stroke="black" stroke-width="2" d="M521.05,-391.41C531.09,-322.86 539.75,-194.93 485.24,-106.31 480.12,-97.99 473.41,-90.64 465.88,-84.19"/>
<text text-anchor="middle" x="583.24" y="-247.83" font-family="sans-serif" font-size="12.00">Customer/Supplier</text>
<polygon fill="white" stroke="transparent" points="458.88,-75.19 458.88,-92.19 472.88,-92.19 472.88,-75.19 458.88,-75.19"/>
<text text-anchor="start" x="460.88" y="-80.59" font-family="sans-serif" font-size="12.00">D</text>
<polygon fill="white" stroke="transparent" points="514.05,-382.41 514.05,-399.41 528.05,-399.41 528.05,-382.41 514.05,-382.41"/>
<text text-anchor="start" x="516.05" y="-387.81" font-family="sans-serif" font-size="12.00">U</text>
</g>
<!-- SalesComparativesBC -->
<g id="node6" class="node">
<title>SalesComparativesBC</title>
<polygon fill="none" stroke="black" stroke-width="2" points="513.5,-716.97 509.54,-719.62 505.21,-722.21 500.53,-724.72 495.5,-727.14 490.16,-729.47 484.52,-731.69 478.59,-733.8 472.39,-735.78 465.96,-737.64 459.29,-739.35 452.43,-740.93 445.37,-742.35 438.16,-743.62 430.8,-744.73 423.31,-745.68 415.72,-746.47 408.05,-747.1 400.31,-747.55 392.53,-747.85 384.72,-747.98 376.91,-747.95 369.1,-747.76 361.33,-747.41 353.6,-746.92 345.94,-746.27 338.36,-745.49 330.88,-744.56 323.51,-743.51 316.27,-742.34 309.18,-741.05 302.25,-739.65 295.5,-738.15 288.93,-736.55 282.57,-734.88 276.43,-733.12 270.51,-731.29 264.84,-729.4 259.43,-727.46 254.28,-725.47 249.42,-723.44 244.85,-721.38 240.58,-719.3 236.62,-717.19 232.99,-715.08 229.69,-712.95 226.74,-710.83 224.13,-708.7 221.89,-706.59 220.02,-704.49 218.53,-702.41 217.42,-700.34 216.7,-698.3 216.37,-696.28 216.44,-694.3 216.91,-692.34 217.79,-690.41 219.08,-688.52 220.77,-686.67 222.87,-684.85 225.38,-683.06 228.29,-681.32 231.6,-679.62 235.31,-677.96 239.4,-676.34 243.88,-674.76 248.73,-673.23 253.94,-671.74 259.5,-670.3 265.4,-668.91 271.63,-667.57 278.17,-666.29 285,-665.06 292.1,-663.88 299.46,-662.77 307.06,-661.72 314.87,-660.74 322.88,-659.83 331.05,-658.99 339.37,-658.24 347.8,-657.56 356.34,-656.97 364.94,-656.47 373.58,-656.07 382.23,-655.76 390.87,-655.56 399.47,-655.46 408,-655.47 416.43,-655.6 424.74,-655.85 432.9,-656.22 440.88,-656.71 448.65,-657.33 456.2,-658.07 463.49,-658.95 470.5,-659.95 477.21,-661.09 483.6,-662.36 489.64,-663.76 495.32,-665.28 500.62,-666.93 505.52,-668.7 510.02,-670.6 514.09,-672.61 517.72,-674.72 520.9,-676.94 523.63,-679.26 525.9,-681.67 527.71,-684.16 529.04,-686.73 529.91,-689.36 530.3,-692.04 530.23,-694.77 529.69,-697.54 528.69,-700.33 527.24,-703.14 525.34,-705.94 523.01,-708.74 520.25,-711.52 517.07,-714.27 513.5,-716.97"/>
<text text-anchor="middle" x="370.24" y="-695.53" font-family="sans-serif" font-size="16.00">SalesComparativesBC</text>
</g>
<!-- SalesComparativesBC&#45;&gt;LeaseTransactionsBC -->
<g id="edge6" class="edge">
<title>SalesComparativesBC&#45;&gt;LeaseTransactionsBC</title>
<path fill="none" stroke="black" stroke-width="2" d="M323.01,-659.54C313.24,-650.98 303.21,-641.77 294.24,-632.75 284.53,-622.98 274.61,-611.97 265.51,-601.4"/>
<text text-anchor="middle" x="369.74" y="-623.15" font-family="sans-serif" font-size="12.00"> &#160;&#160;&#160;&#160;&#160;&#160;&#160;&#160;&#160;&#160;&#160;&#160;&#160;&#160;&#160;&#160;&#160;&#160;&#160;&#160;&#160;&#160;&#160;&#160;&#160;&#160;&#160;&#160;&#160;&#160;&#160;&#160;&#160;&#160;&#160;&#160;&#160;&#160;&#160;</text>
<polygon fill="white" stroke="transparent" points="242.51,-591.4 242.51,-610.4 258.51,-610.4 258.51,-591.4 242.51,-591.4"/>
<polyline fill="none" stroke="black" points="258.51,-591.4 258.51,-610.4 "/>
<text text-anchor="start" x="245.51" y="-597.8" font-family="sans-serif" font-size="12.00">D</text>
<polygon fill="white" stroke="transparent" points="258.51,-591.4 258.51,-610.4 288.51,-610.4 288.51,-591.4 258.51,-591.4"/>
<polygon fill="none" stroke="black" points="258.51,-591.4 258.51,-610.4 288.51,-610.4 288.51,-591.4 258.51,-591.4"/>
<text text-anchor="start" x="261.51" y="-597.8" font-family="sans-serif" font-size="12.00">ACL</text>
<polygon fill="white" stroke="transparent" points="288.01,-649.54 288.01,-668.54 304.01,-668.54 304.01,-649.54 288.01,-649.54"/>
<polyline fill="none" stroke="black" points="304.01,-649.54 304.01,-668.54 "/>
<text text-anchor="start" x="291.01" y="-655.94" font-family="sans-serif" font-size="12.00">U</text>
<polygon fill="white" stroke="transparent" points="304.01,-649.54 304.01,-668.54 359.01,-668.54 359.01,-649.54 304.01,-649.54"/>
<polygon fill="none" stroke="black" points="304.01,-649.54 304.01,-668.54 359.01,-668.54 359.01,-649.54 304.01,-649.54"/>
<text text-anchor="start" x="307.01" y="-655.94" font-family="sans-serif" font-size="12.00">OHS, PL</text>
</g>
<!-- SalesComparativesBC&#45;&gt;MarketAndPropertyAnalysisBC -->
<g id="edge5" class="edge">
<title>SalesComparativesBC&#45;&gt;MarketAndPropertyAnalysisBC</title>
<path fill="none" stroke="black" stroke-width="2" d="M425.74,-655.86C432.94,-648.7 439.72,-640.92 445.24,-632.75 476.82,-586.01 495.1,-522.82 504.37,-481.99"/>
<text text-anchor="middle" x="494.24" y="-623.15" font-family="sans-serif" font-size="12.00">Shared Kernel</text>
</g>
</g>
</svg>
